<svg xmlns="http://www.w3.org/2000/svg" version="1.1"
     width="50.0mm" height="50.0mm" viewBox="-25.0 -25.0 50.0 50.0">
  <title>Hausfest Via — QR-Anhänger Ø50 mm</title>
  <style>
    .gravur { fill: #000; stroke: none; }
    .gravur .hell { fill: #fff; }
    .gravur .ring { fill: none; stroke: #000; }
    .gravur .linie { fill: none; stroke: #000;
                      stroke-linecap: round; stroke-linejoin: round; }
    .schnitt { fill: none; stroke: #ff0000; stroke-width: 0.08; }
  </style>
  <g id="gravur" class="gravur">
    <rect class="hell" x="-15.147" y="-15.147" width="30.295" height="30.295"/><rect class="ring" x="-13.1005" y="8.1878" width="4.9127" height="4.9127" stroke-width="0.8188"/><rect x="-11.8723" y="9.4160" width="2.4563" height="2.4563" rx="0.8188"/><rect class="ring" x="8.1878" y="-13.1005" width="4.9127" height="4.9127" stroke-width="0.8188"/><rect x="9.4160" y="-11.8723" width="2.4563" height="2.4563" rx="0.8188"/><rect class="ring" x="-13.1005" y="-13.1005" width="4.9127" height="4.9127" stroke-width="0.8188"/><rect x="-11.8723" y="-11.8723" width="2.4563" height="2.4563" rx="0.8188"/><path d="M-6.5503 -13.5099H-6.1409V-12.6911H-6.9597V-13.1005A0.4094 0.4094 0 0 1 -6.5503 -13.5099ZM-6.1409 -13.5099H-5.3221V-12.6911H-6.1409V-13.5099ZM-5.3221 -13.5099H-4.9127A0.4094 0.4094 0 0 1 -4.5033 -13.1005V-12.6911H-5.3221V-13.5099ZM-2.4563 -13.5099H-2.0470V-12.6911H-2.4563A0.4094 0.4094 0 0 1 -2.8657 -13.1005V-13.1005A0.4094 0.4094 0 0 1 -2.4563 -13.5099ZM-2.0470 -13.5099H-1.2282V-12.6911H-2.0470V-13.5099ZM-1.2282 -13.5099H-0.8188A0.4094 0.4094 0 0 1 -0.4094 -13.1005V-13.1005A0.4094 0.4094 0 0 1 -0.8188 -12.6911H-1.2282V-13.5099ZM1.6376 -13.5099H2.0470V-12.6911H1.2282V-13.1005A0.4094 0.4094 0 0 1 1.6376 -13.5099ZM2.0470 -13.5099H2.8657V-12.6911H2.0470V-13.5099ZM2.8657 -13.5099H3.6845V-12.6911H2.8657V-13.5099ZM3.6845 -13.5099H4.0939A0.4094 0.4094 0 0 1 4.5033 -13.1005V-13.1005A0.4094 0.4094 0 0 1 4.0939 -12.6911H3.6845V-13.5099ZM5.7315 -13.5099H6.1409V-12.6911H5.7315A0.4094 0.4094 0 0 1 5.3221 -13.1005V-13.1005A0.4094 0.4094 0 0 1 5.7315 -13.5099ZM6.1409 -13.5099H6.5503A0.4094 0.4094 0 0 1 6.9597 -13.1005V-12.6911H6.1409V-13.5099ZM-6.9597 -12.6911H-6.1409V-11.8723H-6.9597V-12.6911ZM-6.1409 -12.6911H-5.3221V-11.8723H-6.1409V-12.6911ZM-5.3221 -12.6911H-4.5033V-11.8723H-5.3221V-12.6911ZM-4.5033 -12.6911H-4.0939A0.4094 0.4094 0 0 1 -3.6845 -12.2817V-11.8723H-4.5033V-12.6911ZM-2.0470 -12.6911H-1.2282V-12.2817A0.4094 0.4094 0 0 1 -1.6376 -11.8723H-1.6376A0.4094 0.4094 0 0 1 -2.0470 -12.2817V-12.6911ZM0.0000 -12.6911H0.0000A0.4094 0.4094 0 0 1 0.4094 -12.2817V-11.8723H-0.4094V-12.2817A0.4094 0.4094 0 0 1 0.0000 -12.6911ZM1.2282 -12.6911H2.0470V-11.8723H1.2282V-12.6911ZM6.1409 -12.6911H6.9597V-11.8723H6.1409V-12.6911ZM-6.9597 -11.8723H-6.1409V-11.4630A0.4094 0.4094 0 0 1 -6.5503 -11.0536H-6.5503A0.4094 0.4094 0 0 1 -6.9597 -11.4630V-11.8723ZM-4.5033 -11.8723H-3.6845V-11.0536H-4.0939A0.4094 0.4094 0 0 1 -4.5033 -11.4630V-11.8723ZM-3.6845 -11.8723H-3.2751A0.4094 0.4094 0 0 1 -2.8657 -11.4630V-11.0536H-3.6845V-11.8723ZM-0.4094 -11.8723H0.4094V-11.0536H0.0000A0.4094 0.4094 0 0 1 -0.4094 -11.4630V-11.8723ZM0.4094 -11.8723H1.2282V-11.0536H0.4094V-11.8723ZM1.2282 -11.8723H2.0470V-11.0536H1.2282V-11.8723ZM4.0939 -11.8723H4.5033V-11.0536H4.0939A0.4094 0.4094 0 0 1 3.6845 -11.4630V-11.4630A0.4094 0.4094 0 0 1 4.0939 -11.8723ZM4.5033 -11.8723H5.3221V-11.0536H4.5033V-11.8723ZM5.3221 -11.8723H6.1409V-11.0536H5.3221V-11.8723ZM6.1409 -11.8723H6.9597V-11.0536H6.1409V-11.8723ZM-4.9127 -11.0536H-4.9127A0.4094 0.4094 0 0 1 -4.5033 -10.6442V-10.6442A0.4094 0.4094 0 0 1 -4.9127 -10.2348H-4.9127A0.4094 0.4094 0 0 1 -5.3221 -10.6442V-10.6442A0.4094 0.4094 0 0 1 -4.9127 -11.0536ZM-3.6845 -11.0536H-2.8657V-10.2348H-3.2751A0.4094 0.4094 0 0 1 -3.6845 -10.6442V-11.0536ZM-2.8657 -11.0536H-2.0470V-10.2348H-2.8657V-11.0536ZM-2.0470 -11.0536H-1.6376A0.4094 0.4094 0 0 1 -1.2282 -10.6442V-10.2348H-2.0470V-11.0536ZM0.4094 -11.0536H1.2282V-10.2348H0.4094V-11.0536ZM1.2282 -11.0536H2.0470V-10.6442A0.4094 0.4094 0 0 1 1.6376 -10.2348H1.2282V-11.0536ZM3.2751 -11.0536H3.2751A0.4094 0.4094 0 0 1 3.6845 -10.6442V-10.6442A0.4094 0.4094 0 0 1 3.2751 -10.2348H3.2751A0.4094 0.4094 0 0 1 2.8657 -10.6442V-10.6442A0.4094 0.4094 0 0 1 3.2751 -11.0536ZM4.5033 -11.0536H5.3221V-10.2348H4.5033V-11.0536ZM5.3221 -11.0536H6.1409V-10.2348H5.3221V-11.0536ZM6.1409 -11.0536H6.9597V-10.6442A0.4094 0.4094 0 0 1 6.5503 -10.2348H6.1409V-11.0536ZM-4.0939 -10.2348H-4.0939A0.4094 0.4094 0 0 1 -3.6845 -9.8254V-9.4160H-4.5033V-9.8254A0.4094 0.4094 0 0 1 -4.0939 -10.2348ZM-2.0470 -10.2348H-1.2282V-9.4160H-2.0470V-10.2348ZM-1.2282 -10.2348H-0.4094V-9.4160H-1.2282V-10.2348ZM-0.4094 -10.2348H0.4094V-9.4160H-0.4094V-10.2348ZM0.4094 -10.2348H1.2282V-9.4160H0.4094V-10.2348ZM4.5033 -10.2348H5.3221V-9.4160H4.5033V-10.2348ZM5.3221 -10.2348H6.1409V-9.8254A0.4094 0.4094 0 0 1 5.7315 -9.4160H5.3221V-10.2348ZM-6.5503 -9.4160H-6.5503A0.4094 0.4094 0 0 1 -6.1409 -9.0066V-8.5972H-6.9597V-9.0066A0.4094 0.4094 0 0 1 -6.5503 -9.4160ZM-4.9127 -9.4160H-4.5033V-8.5972H-5.3221V-9.0066A0.4094 0.4094 0 0 1 -4.9127 -9.4160ZM-4.5033 -9.4160H-3.6845V-8.5972H-4.5033V-9.4160ZM-3.6845 -9.4160H-2.8657V-8.5972H-3.6845V-9.4160ZM-2.8657 -9.4160H-2.0470V-8.5972H-2.8657V-9.4160ZM-2.0470 -9.4160H-1.2282V-8.5972H-2.0470V-9.4160ZM-1.2282 -9.4160H-0.4094V-9.0066A0.4094 0.4094 0 0 1 -0.8188 -8.5972H-1.2282V-9.4160ZM0.4094 -9.4160H1.2282V-8.5972H0.8188A0.4094 0.4094 0 0 1 0.4094 -9.0066V-9.4160ZM1.2282 -9.4160H1.6376A0.4094 0.4094 0 0 1 2.0470 -9.0066V-8.5972H1.2282V-9.4160ZM3.2751 -9.4160H3.6845V-8.5972H2.8657V-9.0066A0.4094 0.4094 0 0 1 3.2751 -9.4160ZM3.6845 -9.4160H4.5033V-8.5972H3.6845V-9.4160ZM4.5033 -9.4160H5.3221V-8.5972H4.5033V-9.4160ZM6.5503 -9.4160H6.5503A0.4094 0.4094 0 0 1 6.9597 -9.0066V-8.5972H6.1409V-9.0066A0.4094 0.4094 0 0 1 6.5503 -9.4160ZM-6.9597 -8.5972H-6.1409V-7.7784H-6.9597V-8.5972ZM-5.3221 -8.5972H-4.5033V-8.1878A0.4094 0.4094 0 0 1 -4.9127 -7.7784H-4.9127A0.4094 0.4094 0 0 1 -5.3221 -8.1878V-8.5972ZM-3.6845 -8.5972H-2.8657V-7.7784H-3.6845V-8.5972ZM-2.0470 -8.5972H-1.2282V-7.7784H-2.0470V-8.5972ZM0.0000 -8.5972H0.0000A0.4094 0.4094 0 0 1 0.4094 -8.1878V-8.1878A0.4094 0.4094 0 0 1 0.0000 -7.7784H0.0000A0.4094 0.4094 0 0 1 -0.4094 -8.1878V-8.1878A0.4094 0.4094 0 0 1 0.0000 -8.5972ZM1.2282 -8.5972H2.0470V-8.1878A0.4094 0.4094 0 0 1 1.6376 -7.7784H1.6376A0.4094 0.4094 0 0 1 1.2282 -8.1878V-8.5972ZM2.8657 -8.5972H3.6845V-8.1878A0.4094 0.4094 0 0 1 3.2751 -7.7784H3.2751A0.4094 0.4094 0 0 1 2.8657 -8.1878V-8.5972ZM4.5033 -8.5972H5.3221V-7.7784H4.5033V-8.5972ZM6.1409 -8.5972H6.9597V-8.1878A0.4094 0.4094 0 0 1 6.5503 -7.7784H6.5503A0.4094 0.4094 0 0 1 6.1409 -8.1878V-8.5972ZM-6.9597 -7.7784H-6.1409V-6.9597H-6.9597V-7.7784ZM-4.0939 -7.7784H-3.6845V-6.9597H-4.0939A0.4094 0.4094 0 0 1 -4.5033 -7.3690V-7.3690A0.4094 0.4094 0 0 1 -4.0939 -7.7784ZM-3.6845 -7.7784H-2.8657V-6.9597H-3.6845V-7.7784ZM-2.8657 -7.7784H-2.0470V-6.9597H-2.8657V-7.7784ZM-2.0470 -7.7784H-1.2282V-7.3690A0.4094 0.4094 0 0 1 -1.6376 -6.9597H-2.0470V-7.7784ZM0.8188 -7.7784H0.8188A0.4094 0.4094 0 0 1 1.2282 -7.3690V-6.9597H0.4094V-7.3690A0.4094 0.4094 0 0 1 0.8188 -7.7784ZM2.4563 -7.7784H2.4563A0.4094 0.4094 0 0 1 2.8657 -7.3690V-7.3690A0.4094 0.4094 0 0 1 2.4563 -6.9597H2.4563A0.4094 0.4094 0 0 1 2.0470 -7.3690V-7.3690A0.4094 0.4094 0 0 1 2.4563 -7.7784ZM4.0939 -7.7784H4.5033V-6.9597H4.0939A0.4094 0.4094 0 0 1 3.6845 -7.3690V-7.3690A0.4094 0.4094 0 0 1 4.0939 -7.7784ZM4.5033 -7.7784H5.3221V-6.9597H4.5033V-7.7784ZM5.3221 -7.7784H5.7315A0.4094 0.4094 0 0 1 6.1409 -7.3690V-6.9597H5.3221V-7.7784ZM-11.4630 -6.9597H-11.0536V-6.1409H-11.8723V-6.5503A0.4094 0.4094 0 0 1 -11.4630 -6.9597ZM-11.0536 -6.9597H-10.2348V-6.1409H-11.0536V-6.9597ZM-10.2348 -6.9597H-9.8254A0.4094 0.4094 0 0 1 -9.4160 -6.5503V-6.1409H-10.2348V-6.9597ZM-8.1878 -6.9597H-8.1878A0.4094 0.4094 0 0 1 -7.7784 -6.5503V-6.5503A0.4094 0.4094 0 0 1 -8.1878 -6.1409H-8.1878A0.4094 0.4094 0 0 1 -8.5972 -6.5503V-6.5503A0.4094 0.4094 0 0 1 -8.1878 -6.9597ZM-6.9597 -6.9597H-6.1409V-6.1409H-6.9597V-6.9597ZM-6.1409 -6.9597H-5.7315A0.4094 0.4094 0 0 1 -5.3221 -6.5503V-6.1409H-6.1409V-6.9597ZM-2.8657 -6.9597H-2.0470V-6.1409H-2.8657V-6.9597ZM0.0000 -6.9597H0.4094V-6.1409H-0.4094V-6.5503A0.4094 0.4094 0 0 1 0.0000 -6.9597ZM0.4094 -6.9597H1.2282V-6.5503A0.4094 0.4094 0 0 1 0.8188 -6.1409H0.4094V-6.9597ZM3.2751 -6.9597H3.2751A0.4094 0.4094 0 0 1 3.6845 -6.5503V-6.5503A0.4094 0.4094 0 0 1 3.2751 -6.1409H3.2751A0.4094 0.4094 0 0 1 2.8657 -6.5503V-6.5503A0.4094 0.4094 0 0 1 3.2751 -6.9597ZM4.5033 -6.9597H5.3221V-6.1409H4.9127A0.4094 0.4094 0 0 1 4.5033 -6.5503V-6.9597ZM5.3221 -6.9597H6.1409V-6.1409H5.3221V-6.9597ZM6.1409 -6.9597H6.9597V-6.1409H6.1409V-6.9597ZM6.9597 -6.9597H7.7784V-6.1409H6.9597V-6.9597ZM7.7784 -6.9597H8.5972V-6.1409H7.7784V-6.9597ZM8.5972 -6.9597H9.0066A0.4094 0.4094 0 0 1 9.4160 -6.5503V-6.5503A0.4094 0.4094 0 0 1 9.0066 -6.1409H8.5972V-6.9597ZM11.4630 -6.9597H11.8723V-6.1409H11.0536V-6.5503A0.4094 0.4094 0 0 1 11.4630 -6.9597ZM11.8723 -6.9597H12.6911V-6.1409H11.8723V-6.9597ZM12.6911 -6.9597H13.1005A0.4094 0.4094 0 0 1 13.5099 -6.5503V-6.1409H12.6911V-6.9597ZM-13.1005 -6.1409H-12.6911V-5.3221H-13.1005A0.4094 0.4094 0 0 1 -13.5099 -5.7315V-5.7315A0.4094 0.4094 0 0 1 -13.1005 -6.1409ZM-12.6911 -6.1409H-11.8723V-5.3221H-12.6911V-6.1409ZM-11.8723 -6.1409H-11.0536V-5.3221H-11.8723V-6.1409ZM-11.0536 -6.1409H-10.2348V-5.3221H-11.0536V-6.1409ZM-10.2348 -6.1409H-9.4160V-5.3221H-10.2348V-6.1409ZM-7.3690 -6.1409H-6.9597V-5.3221H-7.7784V-5.7315A0.4094 0.4094 0 0 1 -7.3690 -6.1409ZM-6.9597 -6.1409H-6.1409V-5.3221H-6.9597V-6.1409ZM-6.1409 -6.1409H-5.3221V-5.3221H-6.1409V-6.1409ZM-5.3221 -6.1409H-4.9127A0.4094 0.4094 0 0 1 -4.5033 -5.7315V-5.3221H-5.3221V-6.1409ZM-3.2751 -6.1409H-2.8657V-5.3221H-3.2751A0.4094 0.4094 0 0 1 -3.6845 -5.7315V-5.7315A0.4094 0.4094 0 0 1 -3.2751 -6.1409ZM-2.8657 -6.1409H-2.0470V-5.3221H-2.8657V-6.1409ZM-0.4094 -6.1409H0.4094V-5.3221H-0.4094V-6.1409ZM1.6376 -6.1409H2.0470V-5.3221H1.6376A0.4094 0.4094 0 0 1 1.2282 -5.7315V-5.7315A0.4094 0.4094 0 0 1 1.6376 -6.1409ZM2.0470 -6.1409H2.4563A0.4094 0.4094 0 0 1 2.8657 -5.7315V-5.7315A0.4094 0.4094 0 0 1 2.4563 -5.3221H2.0470V-6.1409ZM4.0939 -6.1409H4.0939A0.4094 0.4094 0 0 1 4.5033 -5.7315V-5.7315A0.4094 0.4094 0 0 1 4.0939 -5.3221H4.0939A0.4094 0.4094 0 0 1 3.6845 -5.7315V-5.7315A0.4094 0.4094 0 0 1 4.0939 -6.1409ZM5.3221 -6.1409H6.1409V-5.3221H5.7315A0.4094 0.4094 0 0 1 5.3221 -5.7315V-6.1409ZM6.1409 -6.1409H6.9597V-5.3221H6.1409V-6.1409ZM6.9597 -6.1409H7.7784V-5.3221H6.9597V-6.1409ZM7.7784 -6.1409H8.5972V-5.7315A0.4094 0.4094 0 0 1 8.1878 -5.3221H7.7784V-6.1409ZM10.6442 -6.1409H11.0536V-5.3221H10.6442A0.4094 0.4094 0 0 1 10.2348 -5.7315V-5.7315A0.4094 0.4094 0 0 1 10.6442 -6.1409ZM11.0536 -6.1409H11.8723V-5.7315A0.4094 0.4094 0 0 1 11.4630 -5.3221H11.0536V-6.1409ZM12.6911 -6.1409H13.5099V-5.7315A0.4094 0.4094 0 0 1 13.1005 -5.3221H13.1005A0.4094 0.4094 0 0 1 12.6911 -5.7315V-6.1409ZM-12.6911 -5.3221H-11.8723V-4.9127A0.4094 0.4094 0 0 1 -12.2817 -4.5033H-12.2817A0.4094 0.4094 0 0 1 -12.6911 -4.9127V-5.3221ZM-11.0536 -5.3221H-10.2348V-4.5033H-10.6442A0.4094 0.4094 0 0 1 -11.0536 -4.9127V-5.3221ZM-10.2348 -5.3221H-9.4160V-4.5033H-10.2348V-5.3221ZM-9.4160 -5.3221H-8.5972V-4.5033H-9.4160V-5.3221ZM-8.5972 -5.3221H-7.7784V-4.5033H-8.5972V-5.3221ZM-7.7784 -5.3221H-6.9597V-4.5033H-7.7784V-5.3221ZM-6.1409 -5.3221H-5.3221V-4.5033H-5.7315A0.4094 0.4094 0 0 1 -6.1409 -4.9127V-5.3221ZM-5.3221 -5.3221H-4.5033V-4.9127A0.4094 0.4094 0 0 1 -4.9127 -4.5033H-5.3221V-5.3221ZM-2.8657 -5.3221H-2.0470V-4.5033H-2.4563A0.4094 0.4094 0 0 1 -2.8657 -4.9127V-5.3221ZM-2.0470 -5.3221H-1.6376A0.4094 0.4094 0 0 1 -1.2282 -4.9127V-4.9127A0.4094 0.4094 0 0 1 -1.6376 -4.5033H-2.0470V-5.3221ZM-0.4094 -5.3221H0.4094V-4.9127A0.4094 0.4094 0 0 1 0.0000 -4.5033H0.0000A0.4094 0.4094 0 0 1 -0.4094 -4.9127V-5.3221ZM3.2751 -5.3221H3.2751A0.4094 0.4094 0 0 1 3.6845 -4.9127V-4.9127A0.4094 0.4094 0 0 1 3.2751 -4.5033H3.2751A0.4094 0.4094 0 0 1 2.8657 -4.9127V-4.9127A0.4094 0.4094 0 0 1 3.2751 -5.3221ZM6.1409 -5.3221H6.9597V-4.9127A0.4094 0.4094 0 0 1 6.5503 -4.5033H6.5503A0.4094 0.4094 0 0 1 6.1409 -4.9127V-5.3221ZM9.0066 -5.3221H9.0066A0.4094 0.4094 0 0 1 9.4160 -4.9127V-4.9127A0.4094 0.4094 0 0 1 9.0066 -4.5033H9.0066A0.4094 0.4094 0 0 1 8.5972 -4.9127V-4.9127A0.4094 0.4094 0 0 1 9.0066 -5.3221ZM12.2817 -5.3221H12.2817A0.4094 0.4094 0 0 1 12.6911 -4.9127V-4.9127A0.4094 0.4094 0 0 1 12.2817 -4.5033H12.2817A0.4094 0.4094 0 0 1 11.8723 -4.9127V-4.9127A0.4094 0.4094 0 0 1 12.2817 -5.3221ZM-13.1005 -4.5033H-13.1005A0.4094 0.4094 0 0 1 -12.6911 -4.0939V-4.0939A0.4094 0.4094 0 0 1 -13.1005 -3.6845H-13.1005A0.4094 0.4094 0 0 1 -13.5099 -4.0939V-4.0939A0.4094 0.4094 0 0 1 -13.1005 -4.5033ZM-11.4630 -4.5033H-11.4630A0.4094 0.4094 0 0 1 -11.0536 -4.0939V-3.6845H-11.8723V-4.0939A0.4094 0.4094 0 0 1 -11.4630 -4.5033ZM-10.2348 -4.5033H-9.4160V-3.6845H-9.8254A0.4094 0.4094 0 0 1 -10.2348 -4.0939V-4.5033ZM-9.4160 -4.5033H-8.5972V-3.6845H-9.4160V-4.5033ZM-7.7784 -4.5033H-6.9597V-3.6845H-7.3690A0.4094 0.4094 0 0 1 -7.7784 -4.0939V-4.5033ZM-6.9597 -4.5033H-6.5503A0.4094 0.4094 0 0 1 -6.1409 -4.0939V-4.0939A0.4094 0.4094 0 0 1 -6.5503 -3.6845H-6.9597V-4.5033ZM4.9127 -4.5033H4.9127A0.4094 0.4094 0 0 1 5.3221 -4.0939V-3.6845H4.5033V-4.0939A0.4094 0.4094 0 0 1 4.9127 -4.5033ZM7.3690 -4.5033H7.7784V-3.6845H6.9597V-4.0939A0.4094 0.4094 0 0 1 7.3690 -4.5033ZM7.7784 -4.5033H8.1878A0.4094 0.4094 0 0 1 8.5972 -4.0939V-4.0939A0.4094 0.4094 0 0 1 8.1878 -3.6845H7.7784V-4.5033ZM10.6442 -4.5033H11.0536V-3.6845H10.6442A0.4094 0.4094 0 0 1 10.2348 -4.0939V-4.0939A0.4094 0.4094 0 0 1 10.6442 -4.5033ZM11.0536 -4.5033H11.4630A0.4094 0.4094 0 0 1 11.8723 -4.0939V-4.0939A0.4094 0.4094 0 0 1 11.4630 -3.6845H11.0536V-4.5033ZM-11.8723 -3.6845H-11.0536V-2.8657H-11.8723V-3.6845ZM-9.4160 -3.6845H-8.5972V-2.8657H-9.4160V-3.6845ZM-8.5972 -3.6845H-8.1878A0.4094 0.4094 0 0 1 -7.7784 -3.2751V-3.2751A0.4094 0.4094 0 0 1 -8.1878 -2.8657H-8.5972V-3.6845ZM-5.7315 -3.6845H-5.7315A0.4094 0.4094 0 0 1 -5.3221 -3.2751V-3.2751A0.4094 0.4094 0 0 1 -5.7315 -2.8657H-5.7315A0.4094 0.4094 0 0 1 -6.1409 -3.2751V-3.2751A0.4094 0.4094 0 0 1 -5.7315 -3.6845ZM4.5033 -3.6845H5.3221V-2.8657H4.9127A0.4094 0.4094 0 0 1 4.5033 -3.2751V-3.6845ZM5.3221 -3.6845H5.7315A0.4094 0.4094 0 0 1 6.1409 -3.2751V-2.8657H5.3221V-3.6845ZM6.9597 -3.6845H7.7784V-3.2751A0.4094 0.4094 0 0 1 7.3690 -2.8657H7.3690A0.4094 0.4094 0 0 1 6.9597 -3.2751V-3.6845ZM9.0066 -3.6845H9.4160V-2.8657H9.0066A0.4094 0.4094 0 0 1 8.5972 -3.2751V-3.2751A0.4094 0.4094 0 0 1 9.0066 -3.6845ZM9.4160 -3.6845H9.8254A0.4094 0.4094 0 0 1 10.2348 -3.2751V-3.2751A0.4094 0.4094 0 0 1 9.8254 -2.8657H9.4160V-3.6845ZM13.1005 -3.6845H13.1005A0.4094 0.4094 0 0 1 13.5099 -3.2751V-2.8657H12.6911V-3.2751A0.4094 0.4094 0 0 1 13.1005 -3.6845ZM-13.1005 -2.8657H-12.6911V-2.0470H-13.5099V-2.4563A0.4094 0.4094 0 0 1 -13.1005 -2.8657ZM-12.6911 -2.8657H-11.8723V-2.0470H-12.6911V-2.8657ZM-11.8723 -2.8657H-11.0536V-2.4563A0.4094 0.4094 0 0 1 -11.4630 -2.0470H-11.8723V-2.8657ZM-9.4160 -2.8657H-8.5972V-2.0470H-9.4160V-2.8657ZM-4.9127 -2.8657H-4.9127A0.4094 0.4094 0 0 1 -4.5033 -2.4563V-2.0470H-5.3221V-2.4563A0.4094 0.4094 0 0 1 -4.9127 -2.8657ZM5.3221 -2.8657H6.1409V-2.4563A0.4094 0.4094 0 0 1 5.7315 -2.0470H5.7315A0.4094 0.4094 0 0 1 5.3221 -2.4563V-2.8657ZM8.1878 -2.8657H8.1878A0.4094 0.4094 0 0 1 8.5972 -2.4563V-2.0470H7.7784V-2.4563A0.4094 0.4094 0 0 1 8.1878 -2.8657ZM10.6442 -2.8657H11.0536V-2.0470H10.2348V-2.4563A0.4094 0.4094 0 0 1 10.6442 -2.8657ZM11.0536 -2.8657H11.4630A0.4094 0.4094 0 0 1 11.8723 -2.4563V-2.0470H11.0536V-2.8657ZM12.6911 -2.8657H13.5099V-2.4563A0.4094 0.4094 0 0 1 13.1005 -2.0470H13.1005A0.4094 0.4094 0 0 1 12.6911 -2.4563V-2.8657ZM-13.5099 -2.0470H-12.6911V-1.2282H-13.1005A0.4094 0.4094 0 0 1 -13.5099 -1.6376V-2.0470ZM-12.6911 -2.0470H-11.8723V-1.2282H-12.6911V-2.0470ZM-10.6442 -2.0470H-10.6442A0.4094 0.4094 0 0 1 -10.2348 -1.6376V-1.2282H-11.0536V-1.6376A0.4094 0.4094 0 0 1 -10.6442 -2.0470ZM-9.4160 -2.0470H-8.5972V-1.2282H-9.0066A0.4094 0.4094 0 0 1 -9.4160 -1.6376V-2.0470ZM-8.5972 -2.0470H-7.7784V-1.2282H-8.5972V-2.0470ZM-7.7784 -2.0470H-6.9597V-1.2282H-7.7784V-2.0470ZM-6.9597 -2.0470H-6.5503A0.4094 0.4094 0 0 1 -6.1409 -1.6376V-1.6376A0.4094 0.4094 0 0 1 -6.5503 -1.2282H-6.9597V-2.0470ZM-5.3221 -2.0470H-4.5033V-1.2282H-5.3221V-2.0470ZM4.9127 -2.0470H4.9127A0.4094 0.4094 0 0 1 5.3221 -1.6376V-1.2282H4.5033V-1.6376A0.4094 0.4094 0 0 1 4.9127 -2.0470ZM7.3690 -2.0470H7.7784V-1.2282H7.3690A0.4094 0.4094 0 0 1 6.9597 -1.6376V-1.6376A0.4094 0.4094 0 0 1 7.3690 -2.0470ZM7.7784 -2.0470H8.5972V-1.2282H7.7784V-2.0470ZM8.5972 -2.0470H9.0066A0.4094 0.4094 0 0 1 9.4160 -1.6376V-1.6376A0.4094 0.4094 0 0 1 9.0066 -1.2282H8.5972V-2.0470ZM10.2348 -2.0470H11.0536V-1.2282H10.2348V-2.0470ZM11.0536 -2.0470H11.8723V-1.2282H11.0536V-2.0470ZM11.8723 -2.0470H12.2817A0.4094 0.4094 0 0 1 12.6911 -1.6376V-1.6376A0.4094 0.4094 0 0 1 12.2817 -1.2282H11.8723V-2.0470ZM-12.6911 -1.2282H-11.8723V-0.4094H-12.6911V-1.2282ZM-11.8723 -1.2282H-11.0536V-0.4094H-11.8723V-1.2282ZM-11.0536 -1.2282H-10.2348V-0.4094H-11.0536V-1.2282ZM-5.3221 -1.2282H-4.5033V-0.4094H-5.3221V-1.2282ZM4.5033 -1.2282H5.3221V-0.8188A0.4094 0.4094 0 0 1 4.9127 -0.4094H4.9127A0.4094 0.4094 0 0 1 4.5033 -0.8188V-1.2282ZM7.7784 -1.2282H8.5972V-0.8188A0.4094 0.4094 0 0 1 8.1878 -0.4094H8.1878A0.4094 0.4094 0 0 1 7.7784 -0.8188V-1.2282ZM9.8254 -1.2282H10.2348V-0.4094H9.4160V-0.8188A0.4094 0.4094 0 0 1 9.8254 -1.2282ZM10.2348 -1.2282H11.0536V-0.4094H10.2348V-1.2282ZM11.0536 -1.2282H11.8723V-0.8188A0.4094 0.4094 0 0 1 11.4630 -0.4094H11.0536V-1.2282ZM13.1005 -1.2282H13.1005A0.4094 0.4094 0 0 1 13.5099 -0.8188V-0.8188A0.4094 0.4094 0 0 1 13.1005 -0.4094H13.1005A0.4094 0.4094 0 0 1 12.6911 -0.8188V-0.8188A0.4094 0.4094 0 0 1 13.1005 -1.2282ZM-13.1005 -0.4094H-12.6911V0.4094H-13.1005A0.4094 0.4094 0 0 1 -13.5099 0.0000V0.0000A0.4094 0.4094 0 0 1 -13.1005 -0.4094ZM-12.6911 -0.4094H-11.8723V0.4094H-12.6911V-0.4094ZM-11.0536 -0.4094H-10.2348V0.4094H-10.6442A0.4094 0.4094 0 0 1 -11.0536 0.0000V-0.4094ZM-10.2348 -0.4094H-9.4160V0.4094H-10.2348V-0.4094ZM-9.4160 -0.4094H-8.5972V0.4094H-9.4160V-0.4094ZM-8.5972 -0.4094H-7.7784V0.4094H-8.5972V-0.4094ZM-7.7784 -0.4094H-6.9597V0.4094H-7.7784V-0.4094ZM-6.9597 -0.4094H-6.1409V0.4094H-6.9597V-0.4094ZM-6.1409 -0.4094H-5.3221V0.4094H-6.1409V-0.4094ZM-5.3221 -0.4094H-4.5033V0.0000A0.4094 0.4094 0 0 1 -4.9127 0.4094H-5.3221V-0.4094ZM7.3690 -0.4094H7.3690A0.4094 0.4094 0 0 1 7.7784 0.0000V0.0000A0.4094 0.4094 0 0 1 7.3690 0.4094H7.3690A0.4094 0.4094 0 0 1 6.9597 0.0000V0.0000A0.4094 0.4094 0 0 1 7.3690 -0.4094ZM9.0066 -0.4094H9.4160V0.4094H8.5972V0.0000A0.4094 0.4094 0 0 1 9.0066 -0.4094ZM9.4160 -0.4094H10.2348V0.0000A0.4094 0.4094 0 0 1 9.8254 0.4094H9.4160V-0.4094ZM-12.6911 0.4094H-11.8723V1.2282H-12.2817A0.4094 0.4094 0 0 1 -12.6911 0.8188V0.4094ZM-11.8723 0.4094H-11.4630A0.4094 0.4094 0 0 1 -11.0536 0.8188V0.8188A0.4094 0.4094 0 0 1 -11.4630 1.2282H-11.8723V0.4094ZM-9.4160 0.4094H-8.5972V1.2282H-9.4160V0.4094ZM-7.7784 0.4094H-6.9597V0.8188A0.4094 0.4094 0 0 1 -7.3690 1.2282H-7.3690A0.4094 0.4094 0 0 1 -7.7784 0.8188V0.4094ZM-6.1409 0.4094H-5.3221V0.8188A0.4094 0.4094 0 0 1 -5.7315 1.2282H-5.7315A0.4094 0.4094 0 0 1 -6.1409 0.8188V0.4094ZM5.7315 0.4094H6.1409V1.2282H5.7315A0.4094 0.4094 0 0 1 5.3221 0.8188V0.8188A0.4094 0.4094 0 0 1 5.7315 0.4094ZM6.1409 0.4094H6.5503A0.4094 0.4094 0 0 1 6.9597 0.8188V0.8188A0.4094 0.4094 0 0 1 6.5503 1.2282H6.1409V0.4094ZM8.1878 0.4094H8.5972V1.2282H8.1878A0.4094 0.4094 0 0 1 7.7784 0.8188V0.8188A0.4094 0.4094 0 0 1 8.1878 0.4094ZM8.5972 0.4094H9.4160V0.8188A0.4094 0.4094 0 0 1 9.0066 1.2282H8.5972V0.4094ZM13.1005 0.4094H13.1005A0.4094 0.4094 0 0 1 13.5099 0.8188V0.8188A0.4094 0.4094 0 0 1 13.1005 1.2282H13.1005A0.4094 0.4094 0 0 1 12.6911 0.8188V0.8188A0.4094 0.4094 0 0 1 13.1005 0.4094ZM-13.1005 1.2282H-13.1005A0.4094 0.4094 0 0 1 -12.6911 1.6376V2.0470H-13.5099V1.6376A0.4094 0.4094 0 0 1 -13.1005 1.2282ZM-9.8254 1.2282H-9.4160V2.0470H-9.8254A0.4094 0.4094 0 0 1 -10.2348 1.6376V1.6376A0.4094 0.4094 0 0 1 -9.8254 1.2282ZM-9.4160 1.2282H-8.5972V2.0470H-9.4160V1.2282ZM-8.5972 1.2282H-8.1878A0.4094 0.4094 0 0 1 -7.7784 1.6376V1.6376A0.4094 0.4094 0 0 1 -8.1878 2.0470H-8.5972V1.2282ZM-6.5503 1.2282H-6.5503A0.4094 0.4094 0 0 1 -6.1409 1.6376V2.0470H-6.9597V1.6376A0.4094 0.4094 0 0 1 -6.5503 1.2282ZM4.9127 1.2282H4.9127A0.4094 0.4094 0 0 1 5.3221 1.6376V1.6376A0.4094 0.4094 0 0 1 4.9127 2.0470H4.9127A0.4094 0.4094 0 0 1 4.5033 1.6376V1.6376A0.4094 0.4094 0 0 1 4.9127 1.2282ZM7.3690 1.2282H7.3690A0.4094 0.4094 0 0 1 7.7784 1.6376V2.0470H6.9597V1.6376A0.4094 0.4094 0 0 1 7.3690 1.2282ZM11.4630 1.2282H11.8723V2.0470H11.0536V1.6376A0.4094 0.4094 0 0 1 11.4630 1.2282ZM11.8723 1.2282H12.2817A0.4094 0.4094 0 0 1 12.6911 1.6376V2.0470H11.8723V1.2282ZM-13.5099 2.0470H-12.6911V2.8657H-13.1005A0.4094 0.4094 0 0 1 -13.5099 2.4563V2.0470ZM-12.6911 2.0470H-11.8723V2.8657H-12.6911V2.0470ZM-11.8723 2.0470H-11.0536V2.8657H-11.8723V2.0470ZM-11.0536 2.0470H-10.6442A0.4094 0.4094 0 0 1 -10.2348 2.4563V2.4563A0.4094 0.4094 0 0 1 -10.6442 2.8657H-11.0536V2.0470ZM-6.9597 2.0470H-6.1409V2.4563A0.4094 0.4094 0 0 1 -6.5503 2.8657H-6.5503A0.4094 0.4094 0 0 1 -6.9597 2.4563V2.0470ZM-4.9127 2.0470H-4.9127A0.4094 0.4094 0 0 1 -4.5033 2.4563V2.8657H-5.3221V2.4563A0.4094 0.4094 0 0 1 -4.9127 2.0470ZM5.7315 2.0470H6.1409V2.8657H5.7315A0.4094 0.4094 0 0 1 5.3221 2.4563V2.4563A0.4094 0.4094 0 0 1 5.7315 2.0470ZM6.1409 2.0470H6.9597V2.8657H6.1409V2.0470ZM6.9597 2.0470H7.7784V2.8657H6.9597V2.0470ZM9.0066 2.0470H9.0066A0.4094 0.4094 0 0 1 9.4160 2.4563V2.4563A0.4094 0.4094 0 0 1 9.0066 2.8657H9.0066A0.4094 0.4094 0 0 1 8.5972 2.4563V2.4563A0.4094 0.4094 0 0 1 9.0066 2.0470ZM10.6442 2.0470H11.0536V2.8657H10.2348V2.4563A0.4094 0.4094 0 0 1 10.6442 2.0470ZM11.0536 2.0470H11.8723V2.8657H11.0536V2.0470ZM11.8723 2.0470H12.6911V2.4563A0.4094 0.4094 0 0 1 12.2817 2.8657H11.8723V2.0470ZM-11.8723 2.8657H-11.0536V3.6845H-11.8723V2.8657ZM-8.1878 2.8657H-7.7784V3.6845H-8.1878A0.4094 0.4094 0 0 1 -8.5972 3.2751V3.2751A0.4094 0.4094 0 0 1 -8.1878 2.8657ZM-7.7784 2.8657H-7.3690A0.4094 0.4094 0 0 1 -6.9597 3.2751V3.2751A0.4094 0.4094 0 0 1 -7.3690 3.6845H-7.7784V2.8657ZM-5.7315 2.8657H-5.3221V3.6845H-5.7315A0.4094 0.4094 0 0 1 -6.1409 3.2751V3.2751A0.4094 0.4094 0 0 1 -5.7315 2.8657ZM-5.3221 2.8657H-4.5033V3.6845H-5.3221V2.8657ZM6.1409 2.8657H6.9597V3.6845H6.1409V2.8657ZM6.9597 2.8657H7.7784V3.2751A0.4094 0.4094 0 0 1 7.3690 3.6845H6.9597V2.8657ZM9.8254 2.8657H10.2348V3.6845H9.8254A0.4094 0.4094 0 0 1 9.4160 3.2751V3.2751A0.4094 0.4094 0 0 1 9.8254 2.8657ZM10.2348 2.8657H11.0536V3.2751A0.4094 0.4094 0 0 1 10.6442 3.6845H10.2348V2.8657ZM-13.1005 3.6845H-12.6911V4.5033H-13.5099V4.0939A0.4094 0.4094 0 0 1 -13.1005 3.6845ZM-12.6911 3.6845H-11.8723V4.5033H-12.6911V3.6845ZM-11.8723 3.6845H-11.0536V4.5033H-11.8723V3.6845ZM-9.8254 3.6845H-9.8254A0.4094 0.4094 0 0 1 -9.4160 4.0939V4.0939A0.4094 0.4094 0 0 1 -9.8254 4.5033H-9.8254A0.4094 0.4094 0 0 1 -10.2348 4.0939V4.0939A0.4094 0.4094 0 0 1 -9.8254 3.6845ZM-5.3221 3.6845H-4.5033V4.5033H-5.3221V3.6845ZM5.7315 3.6845H6.1409V4.5033H5.7315A0.4094 0.4094 0 0 1 5.3221 4.0939V4.0939A0.4094 0.4094 0 0 1 5.7315 3.6845ZM6.1409 3.6845H6.9597V4.5033H6.1409V3.6845ZM8.1878 3.6845H8.1878A0.4094 0.4094 0 0 1 8.5972 4.0939V4.0939A0.4094 0.4094 0 0 1 8.1878 4.5033H8.1878A0.4094 0.4094 0 0 1 7.7784 4.0939V4.0939A0.4094 0.4094 0 0 1 8.1878 3.6845ZM11.4630 3.6845H11.8723V4.5033H11.0536V4.0939A0.4094 0.4094 0 0 1 11.4630 3.6845ZM11.8723 3.6845H12.6911V4.5033H11.8723V3.6845ZM12.6911 3.6845H13.1005A0.4094 0.4094 0 0 1 13.5099 4.0939V4.0939A0.4094 0.4094 0 0 1 13.1005 4.5033H12.6911V3.6845ZM-13.5099 4.5033H-12.6911V5.3221H-13.5099V4.5033ZM-11.8723 4.5033H-11.0536V5.3221H-11.8723V4.5033ZM-11.0536 4.5033H-10.6442A0.4094 0.4094 0 0 1 -10.2348 4.9127V5.3221H-11.0536V4.5033ZM-8.1878 4.5033H-8.1878A0.4094 0.4094 0 0 1 -7.7784 4.9127V4.9127A0.4094 0.4094 0 0 1 -8.1878 5.3221H-8.1878A0.4094 0.4094 0 0 1 -8.5972 4.9127V4.9127A0.4094 0.4094 0 0 1 -8.1878 4.5033ZM-5.7315 4.5033H-5.3221V5.3221H-6.1409V4.9127A0.4094 0.4094 0 0 1 -5.7315 4.5033ZM-5.3221 4.5033H-4.5033V5.3221H-5.3221V4.5033ZM-4.5033 4.5033H-3.6845V5.3221H-4.5033V4.5033ZM-3.6845 4.5033H-3.2751A0.4094 0.4094 0 0 1 -2.8657 4.9127V5.3221H-3.6845V4.5033ZM-1.6376 4.5033H-1.6376A0.4094 0.4094 0 0 1 -1.2282 4.9127V4.9127A0.4094 0.4094 0 0 1 -1.6376 5.3221H-1.6376A0.4094 0.4094 0 0 1 -2.0470 4.9127V4.9127A0.4094 0.4094 0 0 1 -1.6376 4.5033ZM2.4563 4.5033H2.8657V5.3221H2.0470V4.9127A0.4094 0.4094 0 0 1 2.4563 4.5033ZM2.8657 4.5033H3.6845V5.3221H2.8657V4.5033ZM3.6845 4.5033H4.5033V5.3221H3.6845V4.5033ZM4.5033 4.5033H4.9127A0.4094 0.4094 0 0 1 5.3221 4.9127V4.9127A0.4094 0.4094 0 0 1 4.9127 5.3221H4.5033V4.5033ZM6.1409 4.5033H6.9597V4.9127A0.4094 0.4094 0 0 1 6.5503 5.3221H6.5503A0.4094 0.4094 0 0 1 6.1409 4.9127V4.5033ZM10.6442 4.5033H11.0536V5.3221H10.2348V4.9127A0.4094 0.4094 0 0 1 10.6442 4.5033ZM11.0536 4.5033H11.8723V5.3221H11.0536V4.5033ZM11.8723 4.5033H12.6911V5.3221H11.8723V4.5033ZM-13.5099 5.3221H-12.6911V6.1409H-13.5099V5.3221ZM-11.8723 5.3221H-11.0536V6.1409H-11.8723V5.3221ZM-11.0536 5.3221H-10.2348V5.7315A0.4094 0.4094 0 0 1 -10.6442 6.1409H-11.0536V5.3221ZM-9.0066 5.3221H-9.0066A0.4094 0.4094 0 0 1 -8.5972 5.7315V5.7315A0.4094 0.4094 0 0 1 -9.0066 6.1409H-9.0066A0.4094 0.4094 0 0 1 -9.4160 5.7315V5.7315A0.4094 0.4094 0 0 1 -9.0066 5.3221ZM-6.1409 5.3221H-5.3221V6.1409H-6.1409V5.3221ZM-4.5033 5.3221H-3.6845V6.1409H-4.5033V5.3221ZM-3.6845 5.3221H-2.8657V5.7315A0.4094 0.4094 0 0 1 -3.2751 6.1409H-3.6845V5.3221ZM0.0000 5.3221H0.0000A0.4094 0.4094 0 0 1 0.4094 5.7315V5.7315A0.4094 0.4094 0 0 1 0.0000 6.1409H0.0000A0.4094 0.4094 0 0 1 -0.4094 5.7315V5.7315A0.4094 0.4094 0 0 1 0.0000 5.3221ZM1.6376 5.3221H2.0470V6.1409H1.6376A0.4094 0.4094 0 0 1 1.2282 5.7315V5.7315A0.4094 0.4094 0 0 1 1.6376 5.3221ZM2.0470 5.3221H2.8657V6.1409H2.0470V5.3221ZM2.8657 5.3221H3.6845V6.1409H2.8657V5.3221ZM3.6845 5.3221H4.5033V5.7315A0.4094 0.4094 0 0 1 4.0939 6.1409H3.6845V5.3221ZM5.7315 5.3221H5.7315A0.4094 0.4094 0 0 1 6.1409 5.7315V6.1409H5.3221V5.7315A0.4094 0.4094 0 0 1 5.7315 5.3221ZM10.2348 5.3221H11.0536V6.1409H10.2348V5.3221ZM11.0536 5.3221H11.8723V6.1409H11.0536V5.3221ZM11.8723 5.3221H12.6911V6.1409H11.8723V5.3221ZM-13.5099 6.1409H-12.6911V6.5503A0.4094 0.4094 0 0 1 -13.1005 6.9597H-13.1005A0.4094 0.4094 0 0 1 -13.5099 6.5503V6.1409ZM-11.8723 6.1409H-11.0536V6.5503A0.4094 0.4094 0 0 1 -11.4630 6.9597H-11.4630A0.4094 0.4094 0 0 1 -11.8723 6.5503V6.1409ZM-8.1878 6.1409H-7.7784V6.9597H-8.1878A0.4094 0.4094 0 0 1 -8.5972 6.5503V6.5503A0.4094 0.4094 0 0 1 -8.1878 6.1409ZM-7.7784 6.1409H-6.9597V6.9597H-7.7784V6.1409ZM-6.9597 6.1409H-6.1409V6.9597H-6.9597V6.1409ZM-6.1409 6.1409H-5.3221V6.5503A0.4094 0.4094 0 0 1 -5.7315 6.9597H-6.1409V6.1409ZM-4.5033 6.1409H-3.6845V6.5503A0.4094 0.4094 0 0 1 -4.0939 6.9597H-4.0939A0.4094 0.4094 0 0 1 -4.5033 6.5503V6.1409ZM-2.4563 6.1409H-2.0470V6.9597H-2.8657V6.5503A0.4094 0.4094 0 0 1 -2.4563 6.1409ZM-2.0470 6.1409H-1.6376A0.4094 0.4094 0 0 1 -1.2282 6.5503V6.5503A0.4094 0.4094 0 0 1 -1.6376 6.9597H-2.0470V6.1409ZM2.0470 6.1409H2.8657V6.9597H2.0470V6.1409ZM4.9127 6.1409H5.3221V6.9597H4.9127A0.4094 0.4094 0 0 1 4.5033 6.5503V6.5503A0.4094 0.4094 0 0 1 4.9127 6.1409ZM5.3221 6.1409H6.1409V6.9597H5.3221V6.1409ZM6.1409 6.1409H6.9597V6.9597H6.1409V6.1409ZM6.9597 6.1409H7.7784V6.9597H6.9597V6.1409ZM7.7784 6.1409H8.5972V6.9597H7.7784V6.1409ZM8.5972 6.1409H9.4160V6.9597H8.5972V6.1409ZM9.4160 6.1409H10.2348V6.9597H9.4160V6.1409ZM10.2348 6.1409H11.0536V6.5503A0.4094 0.4094 0 0 1 10.6442 6.9597H10.2348V6.1409ZM11.8723 6.1409H12.6911V6.9597H12.2817A0.4094 0.4094 0 0 1 11.8723 6.5503V6.1409ZM12.6911 6.1409H13.1005A0.4094 0.4094 0 0 1 13.5099 6.5503V6.9597H12.6911V6.1409ZM-6.9597 6.9597H-6.1409V7.3690A0.4094 0.4094 0 0 1 -6.5503 7.7784H-6.5503A0.4094 0.4094 0 0 1 -6.9597 7.3690V6.9597ZM-4.9127 6.9597H-4.9127A0.4094 0.4094 0 0 1 -4.5033 7.3690V7.3690A0.4094 0.4094 0 0 1 -4.9127 7.7784H-4.9127A0.4094 0.4094 0 0 1 -5.3221 7.3690V7.3690A0.4094 0.4094 0 0 1 -4.9127 6.9597ZM-3.2751 6.9597H-2.8657V7.7784H-3.2751A0.4094 0.4094 0 0 1 -3.6845 7.3690V7.3690A0.4094 0.4094 0 0 1 -3.2751 6.9597ZM-2.8657 6.9597H-2.0470V7.3690A0.4094 0.4094 0 0 1 -2.4563 7.7784H-2.8657V6.9597ZM-0.8188 6.9597H-0.4094V7.7784H-1.2282V7.3690A0.4094 0.4094 0 0 1 -0.8188 6.9597ZM-0.4094 6.9597H0.0000A0.4094 0.4094 0 0 1 0.4094 7.3690V7.7784H-0.4094V6.9597ZM1.6376 6.9597H2.0470V7.7784H1.6376A0.4094 0.4094 0 0 1 1.2282 7.3690V7.3690A0.4094 0.4094 0 0 1 1.6376 6.9597ZM2.0470 6.9597H2.8657V7.7784H2.0470V6.9597ZM2.8657 6.9597H3.2751A0.4094 0.4094 0 0 1 3.6845 7.3690V7.7784H2.8657V6.9597ZM6.1409 6.9597H6.9597V7.7784H6.1409V6.9597ZM9.4160 6.9597H10.2348V7.7784H9.4160V6.9597ZM12.6911 6.9597H13.5099V7.3690A0.4094 0.4094 0 0 1 13.1005 7.7784H13.1005A0.4094 0.4094 0 0 1 12.6911 7.3690V6.9597ZM-1.6376 7.7784H-1.2282V8.5972H-2.0470V8.1878A0.4094 0.4094 0 0 1 -1.6376 7.7784ZM-1.2282 7.7784H-0.4094V8.5972H-1.2282V7.7784ZM-0.4094 7.7784H0.4094V8.5972H-0.4094V7.7784ZM0.4094 7.7784H0.8188A0.4094 0.4094 0 0 1 1.2282 8.1878V8.5972H0.4094V7.7784ZM2.0470 7.7784H2.8657V8.5972H2.0470V7.7784ZM2.8657 7.7784H3.6845V8.5972H2.8657V7.7784ZM3.6845 7.7784H4.0939A0.4094 0.4094 0 0 1 4.5033 8.1878V8.5972H3.6845V7.7784ZM5.7315 7.7784H6.1409V8.5972H5.3221V8.1878A0.4094 0.4094 0 0 1 5.7315 7.7784ZM6.1409 7.7784H6.9597V8.5972H6.1409V7.7784ZM8.1878 7.7784H8.1878A0.4094 0.4094 0 0 1 8.5972 8.1878V8.1878A0.4094 0.4094 0 0 1 8.1878 8.5972H8.1878A0.4094 0.4094 0 0 1 7.7784 8.1878V8.1878A0.4094 0.4094 0 0 1 8.1878 7.7784ZM9.4160 7.7784H10.2348V8.5972H9.4160V7.7784ZM10.2348 7.7784H11.0536V8.5972H10.2348V7.7784ZM11.0536 7.7784H11.8723V8.5972H11.0536V7.7784ZM11.8723 7.7784H12.2817A0.4094 0.4094 0 0 1 12.6911 8.1878V8.5972H11.8723V7.7784ZM-5.7315 8.5972H-5.3221V9.4160H-6.1409V9.0066A0.4094 0.4094 0 0 1 -5.7315 8.5972ZM-5.3221 8.5972H-4.5033V9.4160H-5.3221V8.5972ZM-4.5033 8.5972H-4.0939A0.4094 0.4094 0 0 1 -3.6845 9.0066V9.4160H-4.5033V8.5972ZM-2.4563 8.5972H-2.0470V9.4160H-2.8657V9.0066A0.4094 0.4094 0 0 1 -2.4563 8.5972ZM-2.0470 8.5972H-1.2282V9.0066A0.4094 0.4094 0 0 1 -1.6376 9.4160H-2.0470V8.5972ZM0.4094 8.5972H1.2282V9.4160H0.8188A0.4094 0.4094 0 0 1 0.4094 9.0066V8.5972ZM1.2282 8.5972H2.0470V9.4160H1.2282V8.5972ZM2.0470 8.5972H2.8657V9.4160H2.0470V8.5972ZM2.8657 8.5972H3.6845V9.4160H2.8657V8.5972ZM3.6845 8.5972H4.5033V9.4160H3.6845V8.5972ZM5.3221 8.5972H6.1409V9.4160H5.7315A0.4094 0.4094 0 0 1 5.3221 9.0066V8.5972ZM6.1409 8.5972H6.9597V9.4160H6.1409V8.5972ZM9.4160 8.5972H10.2348V9.4160H9.4160V8.5972ZM10.2348 8.5972H11.0536V9.4160H10.2348V8.5972ZM11.0536 8.5972H11.8723V9.4160H11.0536V8.5972ZM11.8723 8.5972H12.6911V9.4160H11.8723V8.5972ZM12.6911 8.5972H13.1005A0.4094 0.4094 0 0 1 13.5099 9.0066V9.4160H12.6911V8.5972ZM-6.5503 9.4160H-6.1409V10.2348H-6.9597V9.8254A0.4094 0.4094 0 0 1 -6.5503 9.4160ZM-6.1409 9.4160H-5.3221V10.2348H-6.1409V9.4160ZM-5.3221 9.4160H-4.5033V10.2348H-5.3221V9.4160ZM-4.5033 9.4160H-3.6845V10.2348H-4.5033V9.4160ZM-3.6845 9.4160H-2.8657V10.2348H-3.6845V9.4160ZM-2.8657 9.4160H-2.0470V9.8254A0.4094 0.4094 0 0 1 -2.4563 10.2348H-2.8657V9.4160ZM0.0000 9.4160H0.0000A0.4094 0.4094 0 0 1 0.4094 9.8254V9.8254A0.4094 0.4094 0 0 1 0.0000 10.2348H0.0000A0.4094 0.4094 0 0 1 -0.4094 9.8254V9.8254A0.4094 0.4094 0 0 1 0.0000 9.4160ZM1.2282 9.4160H2.0470V10.2348H1.2282V9.4160ZM2.0470 9.4160H2.8657V9.8254A0.4094 0.4094 0 0 1 2.4563 10.2348H2.0470V9.4160ZM3.6845 9.4160H4.5033V10.2348H3.6845V9.4160ZM6.1409 9.4160H6.9597V10.2348H6.1409V9.4160ZM6.9597 9.4160H7.7784V10.2348H6.9597V9.4160ZM7.7784 9.4160H8.5972V10.2348H7.7784V9.4160ZM8.5972 9.4160H9.4160V10.2348H8.5972V9.4160ZM9.4160 9.4160H10.2348V10.2348H9.4160V9.4160ZM11.8723 9.4160H12.6911V10.2348H12.2817A0.4094 0.4094 0 0 1 11.8723 9.8254V9.4160ZM12.6911 9.4160H13.5099V10.2348H12.6911V9.4160ZM-6.9597 10.2348H-6.1409V11.0536H-6.9597V10.2348ZM-5.3221 10.2348H-4.5033V11.0536H-5.3221V10.2348ZM-4.5033 10.2348H-3.6845V11.0536H-4.5033V10.2348ZM-3.6845 10.2348H-2.8657V10.6442A0.4094 0.4094 0 0 1 -3.2751 11.0536H-3.6845V10.2348ZM1.2282 10.2348H2.0470V10.6442A0.4094 0.4094 0 0 1 1.6376 11.0536H1.6376A0.4094 0.4094 0 0 1 1.2282 10.6442V10.2348ZM3.6845 10.2348H4.5033V10.6442A0.4094 0.4094 0 0 1 4.0939 11.0536H4.0939A0.4094 0.4094 0 0 1 3.6845 10.6442V10.2348ZM5.7315 10.2348H6.1409V11.0536H5.7315A0.4094 0.4094 0 0 1 5.3221 10.6442V10.6442A0.4094 0.4094 0 0 1 5.7315 10.2348ZM6.1409 10.2348H6.9597V11.0536H6.1409V10.2348ZM6.9597 10.2348H7.7784V11.0536H6.9597V10.2348ZM9.4160 10.2348H10.2348V11.0536H9.8254A0.4094 0.4094 0 0 1 9.4160 10.6442V10.2348ZM10.2348 10.2348H10.6442A0.4094 0.4094 0 0 1 11.0536 10.6442V10.6442A0.4094 0.4094 0 0 1 10.6442 11.0536H10.2348V10.2348ZM12.6911 10.2348H13.5099V10.6442A0.4094 0.4094 0 0 1 13.1005 11.0536H13.1005A0.4094 0.4094 0 0 1 12.6911 10.6442V10.2348ZM-6.9597 11.0536H-6.1409V11.4630A0.4094 0.4094 0 0 1 -6.5503 11.8723H-6.5503A0.4094 0.4094 0 0 1 -6.9597 11.4630V11.0536ZM-5.3221 11.0536H-4.5033V11.4630A0.4094 0.4094 0 0 1 -4.9127 11.8723H-4.9127A0.4094 0.4094 0 0 1 -5.3221 11.4630V11.0536ZM0.0000 11.0536H0.4094V11.8723H-0.4094V11.4630A0.4094 0.4094 0 0 1 0.0000 11.0536ZM0.4094 11.0536H0.8188A0.4094 0.4094 0 0 1 1.2282 11.4630V11.4630A0.4094 0.4094 0 0 1 0.8188 11.8723H0.4094V11.0536ZM3.2751 11.0536H3.2751A0.4094 0.4094 0 0 1 3.6845 11.4630V11.4630A0.4094 0.4094 0 0 1 3.2751 11.8723H3.2751A0.4094 0.4094 0 0 1 2.8657 11.4630V11.4630A0.4094 0.4094 0 0 1 3.2751 11.0536ZM4.9127 11.0536H4.9127A0.4094 0.4094 0 0 1 5.3221 11.4630V11.4630A0.4094 0.4094 0 0 1 4.9127 11.8723H4.9127A0.4094 0.4094 0 0 1 4.5033 11.4630V11.4630A0.4094 0.4094 0 0 1 4.9127 11.0536ZM6.1409 11.0536H6.9597V11.8723H6.5503A0.4094 0.4094 0 0 1 6.1409 11.4630V11.0536ZM6.9597 11.0536H7.7784V11.8723H6.9597V11.0536ZM7.7784 11.0536H8.1878A0.4094 0.4094 0 0 1 8.5972 11.4630V11.4630A0.4094 0.4094 0 0 1 8.1878 11.8723H7.7784V11.0536ZM11.4630 11.0536H11.4630A0.4094 0.4094 0 0 1 11.8723 11.4630V11.8723H11.0536V11.4630A0.4094 0.4094 0 0 1 11.4630 11.0536ZM-2.4563 11.8723H-2.0470V12.6911H-2.8657V12.2817A0.4094 0.4094 0 0 1 -2.4563 11.8723ZM-2.0470 11.8723H-1.6376A0.4094 0.4094 0 0 1 -1.2282 12.2817V12.6911H-2.0470V11.8723ZM-0.4094 11.8723H0.4094V12.2817A0.4094 0.4094 0 0 1 0.0000 12.6911H0.0000A0.4094 0.4094 0 0 1 -0.4094 12.2817V11.8723ZM1.6376 11.8723H1.6376A0.4094 0.4094 0 0 1 2.0470 12.2817V12.6911H1.2282V12.2817A0.4094 0.4094 0 0 1 1.6376 11.8723ZM4.0939 11.8723H4.0939A0.4094 0.4094 0 0 1 4.5033 12.2817V12.2817A0.4094 0.4094 0 0 1 4.0939 12.6911H4.0939A0.4094 0.4094 0 0 1 3.6845 12.2817V12.2817A0.4094 0.4094 0 0 1 4.0939 11.8723ZM6.9597 11.8723H7.7784V12.2817A0.4094 0.4094 0 0 1 7.3690 12.6911H7.3690A0.4094 0.4094 0 0 1 6.9597 12.2817V11.8723ZM9.0066 11.8723H9.0066A0.4094 0.4094 0 0 1 9.4160 12.2817V12.2817A0.4094 0.4094 0 0 1 9.0066 12.6911H9.0066A0.4094 0.4094 0 0 1 8.5972 12.2817V12.2817A0.4094 0.4094 0 0 1 9.0066 11.8723ZM10.6442 11.8723H11.0536V12.6911H10.6442A0.4094 0.4094 0 0 1 10.2348 12.2817V12.2817A0.4094 0.4094 0 0 1 10.6442 11.8723ZM11.0536 11.8723H11.8723V12.2817A0.4094 0.4094 0 0 1 11.4630 12.6911H11.0536V11.8723ZM-2.8657 12.6911H-2.0470V13.5099H-2.4563A0.4094 0.4094 0 0 1 -2.8657 13.1005V12.6911ZM-2.0470 12.6911H-1.2282V13.5099H-2.0470V12.6911ZM-1.2282 12.6911H-0.8188A0.4094 0.4094 0 0 1 -0.4094 13.1005V13.1005A0.4094 0.4094 0 0 1 -0.8188 13.5099H-1.2282V12.6911ZM1.2282 12.6911H2.0470V13.5099H1.6376A0.4094 0.4094 0 0 1 1.2282 13.1005V12.6911ZM2.0470 12.6911H2.4563A0.4094 0.4094 0 0 1 2.8657 13.1005V13.1005A0.4094 0.4094 0 0 1 2.4563 13.5099H2.0470V12.6911ZM4.9127 12.6911H5.3221V13.5099H4.9127A0.4094 0.4094 0 0 1 4.5033 13.1005V13.1005A0.4094 0.4094 0 0 1 4.9127 12.6911ZM5.3221 12.6911H6.1409V13.5099H5.3221V12.6911ZM6.1409 12.6911H6.5503A0.4094 0.4094 0 0 1 6.9597 13.1005V13.1005A0.4094 0.4094 0 0 1 6.5503 13.5099H6.1409V12.6911ZM8.1878 12.6911H8.1878A0.4094 0.4094 0 0 1 8.5972 13.1005V13.1005A0.4094 0.4094 0 0 1 8.1878 13.5099H8.1878A0.4094 0.4094 0 0 1 7.7784 13.1005V13.1005A0.4094 0.4094 0 0 1 8.1878 12.6911ZM12.2817 12.6911H12.2817A0.4094 0.4094 0 0 1 12.6911 13.1005V13.1005A0.4094 0.4094 0 0 1 12.2817 13.5099H12.2817A0.4094 0.4094 0 0 1 11.8723 13.1005V13.1005A0.4094 0.4094 0 0 1 12.2817 12.6911Z"/><path class="linie" stroke-width="0.280" d="M0.000 0.345L-3.332 3.947H3.332Z"/><path class="linie" stroke-width="0.185" d="M0.000 0.345V3.947"/><path class="linie" stroke-width="0.185" d="M-0.833 1.245H0.833"/><path class="linie" stroke-width="0.185" d="M-1.666 2.146H1.666"/><path class="linie" stroke-width="0.185" d="M-2.499 3.047H2.499"/><path class="linie" stroke-width="0.185" d="M-0.666 2.146V3.047"/><path class="linie" stroke-width="0.185" d="M-1.333 2.146V3.047"/><path class="linie" stroke-width="0.185" d="M0.666 2.146V3.047"/><path class="linie" stroke-width="0.185" d="M1.333 2.146V3.047"/><path class="linie" stroke-width="0.185" d="M-1.000 3.047V3.947"/><path class="linie" stroke-width="0.185" d="M-1.666 3.047V3.947"/><path class="linie" stroke-width="0.185" d="M-2.333 3.047V3.947"/><path class="linie" stroke-width="0.185" d="M1.000 3.047V3.947"/><path class="linie" stroke-width="0.185" d="M1.666 3.047V3.947"/><path class="linie" stroke-width="0.185" d="M2.333 3.047V3.947"/><path class="linie" stroke-width="0.280" d="M-1.533 -1.648Q0.000 -3.549 1.533 -1.648Q0.000 0.253 -1.533 -1.648Z"/><circle class="linie" stroke-width="0.185" cx="0.000" cy="-1.648" r="0.817"/><circle cx="0.000" cy="-1.648" r="0.342"/><path class="linie" stroke-width="0.185" d="M1.778 -1.648L2.299 -1.648"/><path class="linie" stroke-width="0.185" d="M1.643 -1.002L2.124 -0.812"/><path class="linie" stroke-width="0.185" d="M1.257 -0.454L1.626 -0.103"/><path class="linie" stroke-width="0.185" d="M0.680 -0.087L0.880 0.370"/><path class="linie" stroke-width="0.185" d="M0.000 0.041L0.000 0.536"/><path class="linie" stroke-width="0.185" d="M-0.680 -0.087L-0.880 0.370"/><path class="linie" stroke-width="0.185" d="M-1.257 -0.454L-1.626 -0.103"/><path class="linie" stroke-width="0.185" d="M-1.643 -1.002L-2.124 -0.812"/><path class="linie" stroke-width="0.185" d="M-1.778 -1.648L-2.299 -1.648"/><path class="linie" stroke-width="0.185" d="M-1.643 -2.294L-2.124 -2.484"/><path class="linie" stroke-width="0.185" d="M-1.257 -2.843L-1.626 -3.193"/><path class="linie" stroke-width="0.185" d="M-0.680 -3.209L-0.880 -3.666"/><path class="linie" stroke-width="0.185" d="M-0.000 -3.337L-0.000 -3.832"/><path class="linie" stroke-width="0.185" d="M0.680 -3.209L0.880 -3.666"/><path class="linie" stroke-width="0.185" d="M1.257 -2.843L1.626 -3.193"/><path class="linie" stroke-width="0.185" d="M1.643 -2.294L2.124 -2.484"/><path d="M68 0V706H225V0ZM505 0V706H663V0ZM162 295V431H557V295Z" transform="translate(-15.3279 -16.2475) scale(0.002350 -0.002350)"/><path d="M257 -10Q190 -10 137.5 23.0Q85 56 54.5 113.0Q24 170 24 243Q24 316 54.5 373.0Q85 430 137.5 463.0Q190 496 257 496Q306 496 345.5 477.0Q385 458 410.0 424.5Q435 391 438 348V138Q435 95 410.5 61.5Q386 28 346.0 9.0Q306 -10 257 -10ZM288 128Q337 128 367.0 160.5Q397 193 397 243Q397 277 383.5 303.0Q370 329 345.5 343.5Q321 358 289 358Q257 358 232.5 343.5Q208 329 193.5 303.0Q179 277 179 243Q179 210 193.0 184.0Q207 158 232.0 143.0Q257 128 288 128ZM391 0V131L414 249L391 367V486H541V0Z" transform="translate(-13.6124 -16.2475) scale(0.002350 -0.002350)"/><path d="M270 -11Q203 -11 151.5 16.5Q100 44 71.0 92.5Q42 141 42 204V486H195V206Q195 181 203.5 163.0Q212 145 229.0 135.0Q246 125 270 125Q304 125 324.0 146.5Q344 168 344 206V486H497V205Q497 141 468.0 92.5Q439 44 388.0 16.5Q337 -11 270 -11Z" transform="translate(-12.2141 -16.2475) scale(0.002350 -0.002350)"/><path d="M231 -12Q188 -12 146.5 -1.0Q105 10 69.5 30.5Q34 51 9 78L96 166Q120 140 153.0 125.5Q186 111 225 111Q252 111 266.5 119.0Q281 127 281 141Q281 159 263.5 168.5Q246 178 219.0 185.5Q192 193 162.0 202.0Q132 211 105.0 227.0Q78 243 61.0 271.5Q44 300 44 344Q44 391 68.0 425.5Q92 460 136.0 480.0Q180 500 239 500Q301 500 353.5 478.5Q406 457 439 415L352 327Q329 354 300.5 365.0Q272 376 245 376Q219 376 206.0 368.5Q193 361 193 347Q193 332 210.0 323.0Q227 314 254.0 307.0Q281 300 311.0 290.0Q341 280 368.0 263.0Q395 246 412.0 217.5Q429 189 429 143Q429 72 375.5 30.0Q322 -12 231 -12Z" transform="translate(-10.9475 -16.2475) scale(0.002350 -0.002350)"/><path d="M116 0V528Q116 587 142.5 634.5Q169 682 217.0 709.5Q265 737 331 737Q381 737 418.5 720.5Q456 704 484 675L388 579Q378 589 365.5 594.5Q353 600 336 600Q305 600 287.0 582.0Q269 564 269 533V0ZM9 356V486H409V356Z" transform="translate(-9.8712 -16.2475) scale(0.002350 -0.002350)"/><path d="M294 -11Q215 -11 153.5 21.5Q92 54 57.0 112.0Q22 170 22 243Q22 316 56.5 373.5Q91 431 150.0 464.0Q209 497 283 497Q355 497 410.0 466.0Q465 435 496.5 380.0Q528 325 528 254Q528 241 526.5 226.5Q525 212 521 193L102 192V297L456 298L390 254Q389 296 377.0 323.5Q365 351 341.5 365.5Q318 380 284 380Q248 380 221.5 363.5Q195 347 180.5 317.0Q166 287 166 244Q166 201 181.5 170.5Q197 140 225.5 123.5Q254 107 293 107Q329 107 358.0 119.5Q387 132 409 157L493 73Q457 31 406.0 10.0Q355 -11 294 -11Z" transform="translate(-8.8466 -16.2475) scale(0.002350 -0.002350)"/><path d="M231 -12Q188 -12 146.5 -1.0Q105 10 69.5 30.5Q34 51 9 78L96 166Q120 140 153.0 125.5Q186 111 225 111Q252 111 266.5 119.0Q281 127 281 141Q281 159 263.5 168.5Q246 178 219.0 185.5Q192 193 162.0 202.0Q132 211 105.0 227.0Q78 243 61.0 271.5Q44 300 44 344Q44 391 68.0 425.5Q92 460 136.0 480.0Q180 500 239 500Q301 500 353.5 478.5Q406 457 439 415L352 327Q329 354 300.5 365.0Q272 376 245 376Q219 376 206.0 368.5Q193 361 193 347Q193 332 210.0 323.0Q227 314 254.0 307.0Q281 300 311.0 290.0Q341 280 368.0 263.0Q395 246 412.0 217.5Q429 189 429 143Q429 72 375.5 30.0Q322 -12 231 -12Z" transform="translate(-7.5588 -16.2475) scale(0.002350 -0.002350)"/><path d="M123 0V687H276V0ZM13 356V486H386V356Z" transform="translate(-6.4825 -16.2475) scale(0.002350 -0.002350)"/><path d="M288 0 16 706H184L391 135H322L532 706H698L423 0Z" transform="translate(-5.0983 -16.2475) scale(0.002350 -0.002350)"/><path d="M54 0V486H207V0ZM131 553Q95 553 71.5 577.5Q48 602 48 637Q48 673 71.5 697.0Q95 721 131 721Q167 721 190.0 697.0Q213 673 213 637Q213 602 190.0 577.5Q167 553 131 553Z" transform="translate(-3.4228 -16.2475) scale(0.002350 -0.002350)"/><path d="M257 -10Q190 -10 137.5 23.0Q85 56 54.5 113.0Q24 170 24 243Q24 316 54.5 373.0Q85 430 137.5 463.0Q190 496 257 496Q306 496 345.5 477.0Q385 458 410.0 424.5Q435 391 438 348V138Q435 95 410.5 61.5Q386 28 346.0 9.0Q306 -10 257 -10ZM288 128Q337 128 367.0 160.5Q397 193 397 243Q397 277 383.5 303.0Q370 329 345.5 343.5Q321 358 289 358Q257 358 232.5 343.5Q208 329 193.5 303.0Q179 277 179 243Q179 210 193.0 184.0Q207 158 232.0 143.0Q257 128 288 128ZM391 0V131L414 249L391 367V486H541V0Z" transform="translate(-2.8094 -16.2475) scale(0.002350 -0.002350)"/><path d="M156 0V706H312V0ZM20 573V706H302V573Z" transform="translate(-1.4112 -16.2475) scale(0.002350 -0.002350)"/><path d="M91 277Q52 277 26.0 304.0Q0 331 0 369Q0 409 26.0 435.5Q52 462 91 462Q131 462 156.5 435.5Q182 409 182 369Q182 331 156.5 304.0Q131 277 91 277Z" transform="translate(-0.0764 -16.2475) scale(0.002350 -0.002350)"/><path d="M254 -11Q181 -11 117.5 14.5Q54 40 12 88L114 189Q133 161 169.5 143.5Q206 126 249 126Q287 126 315.0 139.5Q343 153 359.0 178.5Q375 204 375 238Q375 273 359.0 298.0Q343 323 314.5 336.5Q286 350 250 350Q214 350 184.0 340.5Q154 331 129 312L142 412Q165 430 186.0 441.5Q207 453 232.0 459.0Q257 465 291 465Q369 465 422.5 433.0Q476 401 503.5 348.0Q531 295 531 231Q531 161 496.5 106.0Q462 51 400.0 20.0Q338 -11 254 -11ZM129 312 61 375 95 706H237L200 378ZM116 573 95 706H492V573Z" transform="translate(0.7978 -16.2475) scale(0.002350 -0.002350)"/><path d="M150 -11Q111 -11 85.0 16.0Q59 43 59 81Q59 121 85.0 147.5Q111 174 150 174Q190 174 215.5 147.5Q241 121 241 81Q241 43 215.5 16.0Q190 -11 150 -11Z" transform="translate(2.1138 -16.2475) scale(0.002350 -0.002350)"/><path d="M280 -11Q193 -11 130.5 17.5Q68 46 16 104L118 205Q152 166 193.5 144.5Q235 123 290 123Q340 123 367.5 141.0Q395 159 395 191Q395 220 377.0 238.0Q359 256 329.5 269.0Q300 282 264.5 294.0Q229 306 194.0 321.5Q159 337 129.5 360.5Q100 384 82.0 419.5Q64 455 64 509Q64 574 95.5 621.0Q127 668 183.0 692.5Q239 717 312 717Q386 717 447.5 691.0Q509 665 549 620L447 519Q415 552 382.5 568.0Q350 584 309 584Q268 584 244.0 568.5Q220 553 220 524Q220 497 238.0 480.5Q256 464 285.5 452.0Q315 440 350.5 428.0Q386 416 421.0 400.0Q456 384 485.5 359.5Q515 335 533.0 297.5Q551 260 551 205Q551 104 479.0 46.5Q407 -11 280 -11Z" transform="translate(3.2653 -16.2475) scale(0.002350 -0.002350)"/><path d="M294 -11Q215 -11 153.5 21.5Q92 54 57.0 112.0Q22 170 22 243Q22 316 56.5 373.5Q91 431 150.0 464.0Q209 497 283 497Q355 497 410.0 466.0Q465 435 496.5 380.0Q528 325 528 254Q528 241 526.5 226.5Q525 212 521 193L102 192V297L456 298L390 254Q389 296 377.0 323.5Q365 351 341.5 365.5Q318 380 284 380Q248 380 221.5 363.5Q195 347 180.5 317.0Q166 287 166 244Q166 201 181.5 170.5Q197 140 225.5 123.5Q254 107 293 107Q329 107 358.0 119.5Q387 132 409 157L493 73Q457 31 406.0 10.0Q355 -11 294 -11Z" transform="translate(4.6354 -16.2475) scale(0.002350 -0.002350)"/><path d="M334 -10Q285 -10 244.0 9.0Q203 28 177.0 61.5Q151 95 147 138V343Q151 386 177.0 421.0Q203 456 244.0 476.0Q285 496 334 496Q403 496 456.5 463.0Q510 430 540.5 373.0Q571 316 571 243Q571 170 540.5 113.0Q510 56 456.5 23.0Q403 -10 334 -10ZM54 -205V486H207V361L182 243L205 125V-205ZM306 128Q339 128 363.5 143.0Q388 158 402.0 184.0Q416 210 416 243Q416 277 402.0 303.0Q388 329 363.5 343.5Q339 358 307 358Q275 358 250.5 343.5Q226 329 212.0 303.0Q198 277 198 243Q198 210 211.5 184.0Q225 158 250.0 143.0Q275 128 306 128Z" transform="translate(5.9232 -16.2475) scale(0.002350 -0.002350)"/><path d="M123 0V687H276V0ZM13 356V486H386V356Z" transform="translate(7.3214 -16.2475) scale(0.002350 -0.002350)"/><path d="M294 -11Q215 -11 153.5 21.5Q92 54 57.0 112.0Q22 170 22 243Q22 316 56.5 373.5Q91 431 150.0 464.0Q209 497 283 497Q355 497 410.0 466.0Q465 435 496.5 380.0Q528 325 528 254Q528 241 526.5 226.5Q525 212 521 193L102 192V297L456 298L390 254Q389 296 377.0 323.5Q365 351 341.5 365.5Q318 380 284 380Q248 380 221.5 363.5Q195 347 180.5 317.0Q166 287 166 244Q166 201 181.5 170.5Q197 140 225.5 123.5Q254 107 293 107Q329 107 358.0 119.5Q387 132 409 157L493 73Q457 31 406.0 10.0Q355 -11 294 -11Z" transform="translate(8.2591 -16.2475) scale(0.002350 -0.002350)"/><path d="M54 0V486H207V0ZM365 0V284Q365 321 342.5 341.5Q320 362 287 362Q264 362 246.0 352.5Q228 343 217.5 326.0Q207 309 207 284L148 310Q148 368 173.0 409.5Q198 451 241.0 473.5Q284 496 338 496Q389 496 429.5 473.0Q470 450 494.0 409.0Q518 368 518 311V0ZM676 0V284Q676 321 653.5 341.5Q631 362 598 362Q575 362 557.0 352.5Q539 343 528.5 326.0Q518 309 518 284L430 296Q432 358 459.5 402.5Q487 447 532.5 471.5Q578 496 635 496Q691 496 734.5 472.5Q778 449 803.5 405.5Q829 362 829 301V0Z" transform="translate(9.5469 -16.2475) scale(0.002350 -0.002350)"/><path d="M334 -10Q285 -10 244.0 10.5Q203 31 177.0 65.5Q151 100 147 143V348Q151 391 177.0 424.5Q203 458 244.0 477.0Q285 496 334 496Q403 496 456.5 463.0Q510 430 540.5 373.0Q571 316 571 243Q571 170 540.5 113.0Q510 56 456.5 23.0Q403 -10 334 -10ZM54 0V726H207V367L182 249L205 131V0ZM307 128Q339 128 363.5 143.0Q388 158 402.0 184.0Q416 210 416 243Q416 277 402.0 303.0Q388 329 363.5 343.5Q339 358 307 358Q275 358 250.0 343.5Q225 329 211.5 303.0Q198 277 198 243Q198 209 212.0 183.0Q226 157 250.5 142.5Q275 128 307 128Z" transform="translate(11.5984 -16.2475) scale(0.002350 -0.002350)"/><path d="M294 -11Q215 -11 153.5 21.5Q92 54 57.0 112.0Q22 170 22 243Q22 316 56.5 373.5Q91 431 150.0 464.0Q209 497 283 497Q355 497 410.0 466.0Q465 435 496.5 380.0Q528 325 528 254Q528 241 526.5 226.5Q525 212 521 193L102 192V297L456 298L390 254Q389 296 377.0 323.5Q365 351 341.5 365.5Q318 380 284 380Q248 380 221.5 363.5Q195 347 180.5 317.0Q166 287 166 244Q166 201 181.5 170.5Q197 140 225.5 123.5Q254 107 293 107Q329 107 358.0 119.5Q387 132 409 157L493 73Q457 31 406.0 10.0Q355 -11 294 -11Z" transform="translate(12.9967 -16.2475) scale(0.002350 -0.002350)"/><path d="M54 0V486H207V0ZM207 267 143 317Q162 402 207.0 449.0Q252 496 332 496Q367 496 393.5 485.5Q420 475 440 453L349 338Q339 349 324.0 355.0Q309 361 290 361Q252 361 229.5 337.5Q207 314 207 267Z" transform="translate(14.2845 -16.2475) scale(0.002350 -0.002350)"/><path d="M402 0V277Q402 331 368.0 366.0Q334 401 280 401Q244 401 216.0 385.0Q188 369 172.0 341.0Q156 313 156 277L119 298Q119 352 143.0 394.0Q167 436 210.0 460.5Q253 485 307 485Q361 485 402.5 461.0Q444 437 468.0 394.0Q492 351 492 295V0ZM66 0V714H156V0Z" transform="translate(-11.3987 18.1975) scale(0.001950 -0.001950)"/><path d="M268 -10Q203 -10 150.0 22.5Q97 55 66.5 111.0Q36 167 36 237Q36 307 66.5 363.0Q97 419 149.5 452.0Q202 485 268 485Q322 485 364.5 462.5Q407 440 433.0 400.5Q459 361 462 309V166Q459 115 433.5 75.0Q408 35 365.5 12.5Q323 -10 268 -10ZM283 75Q350 75 391.0 120.5Q432 166 432 237Q432 286 413.5 322.5Q395 359 361.0 379.5Q327 400 282 400Q237 400 202.5 379.0Q168 358 148.5 321.5Q129 285 129 238Q129 190 148.5 153.5Q168 117 203.0 96.0Q238 75 283 75ZM426 0V128L443 244L426 359V475H517V0Z" transform="translate(-10.3301 18.1975) scale(0.001950 -0.001950)"/><path d="M258 -10Q199 -10 152.5 16.5Q106 43 80.0 90.0Q54 137 54 199V475H144V203Q144 164 157.5 135.5Q171 107 197.0 92.0Q223 77 258 77Q311 77 341.0 110.5Q371 144 371 203V475H461V199Q461 137 435.0 90.0Q409 43 363.5 16.5Q318 -10 258 -10Z" transform="translate(-9.1952 18.1975) scale(0.001950 -0.001950)"/><path d="M217 -10Q177 -10 141.5 0.5Q106 11 76.0 30.5Q46 50 24 77L82 135Q108 103 142.0 87.5Q176 72 218 72Q260 72 283.0 86.5Q306 101 306 127Q306 153 287.5 167.5Q269 182 240.0 191.5Q211 201 178.5 210.5Q146 220 117.0 235.0Q88 250 69.5 276.0Q51 302 51 345Q51 388 72.0 419.5Q93 451 130.5 468.0Q168 485 221 485Q277 485 320.5 465.5Q364 446 392 407L334 349Q314 375 284.5 389.0Q255 403 218 403Q179 403 158.5 389.5Q138 376 138 352Q138 328 156.0 315.0Q174 302 203.5 293.0Q233 284 265.0 274.5Q297 265 326.0 249.0Q355 233 373.5 206.0Q392 179 392 135Q392 68 344.5 29.0Q297 -10 217 -10Z" transform="translate(-8.1890 18.1975) scale(0.001950 -0.001950)"/><path d="M134 0V546Q134 599 157.0 638.5Q180 678 220.5 701.0Q261 724 315 724Q356 724 386.0 710.0Q416 696 441 669L382 611Q369 625 353.0 632.5Q337 640 314 640Q271 640 247.5 615.0Q224 590 224 546V0ZM17 393V475H375V393Z" transform="translate(-7.3564 18.1975) scale(0.001950 -0.001950)"/><path d="M286 -10Q215 -10 158.0 22.5Q101 55 68.0 111.0Q35 167 35 238Q35 308 67.5 364.0Q100 420 155.5 452.5Q211 485 280 485Q346 485 396.5 455.0Q447 425 475.5 372.0Q504 319 504 252Q504 242 503.0 230.5Q502 219 499 204H98V279H451L418 250Q418 298 401.0 331.5Q384 365 353.0 383.5Q322 402 278 402Q232 402 197.0 382.0Q162 362 143.0 326.0Q124 290 124 241Q124 191 144.0 153.5Q164 116 201.0 95.5Q238 75 286 75Q326 75 359.5 89.0Q393 103 417 131L475 72Q441 32 391.5 11.0Q342 -10 286 -10Z" transform="translate(-6.5783 18.1975) scale(0.001950 -0.001950)"/><path d="M217 -10Q177 -10 141.5 0.5Q106 11 76.0 30.5Q46 50 24 77L82 135Q108 103 142.0 87.5Q176 72 218 72Q260 72 283.0 86.5Q306 101 306 127Q306 153 287.5 167.5Q269 182 240.0 191.5Q211 201 178.5 210.5Q146 220 117.0 235.0Q88 250 69.5 276.0Q51 302 51 345Q51 388 72.0 419.5Q93 451 130.5 468.0Q168 485 221 485Q277 485 320.5 465.5Q364 446 392 407L334 349Q314 375 284.5 389.0Q255 403 218 403Q179 403 158.5 389.5Q138 376 138 352Q138 328 156.0 315.0Q174 302 203.5 293.0Q233 284 265.0 274.5Q297 265 326.0 249.0Q355 233 373.5 206.0Q392 179 392 135Q392 68 344.5 29.0Q297 -10 217 -10Z" transform="translate(-5.5331 18.1975) scale(0.001950 -0.001950)"/><path d="M139 0V674H229V0ZM22 393V475H346V393Z" transform="translate(-4.7005 18.1975) scale(0.001950 -0.001950)"/><path d="M66 212V297H395V212Z" transform="translate(-3.9829 18.1975) scale(0.001950 -0.001950)"/><path d="M229 0 11 475H111L286 74H228L404 475H500L282 0Z" transform="translate(-3.0839 18.1975) scale(0.001950 -0.001950)"/><path d="M67 0V475H157V0ZM112 570Q87 570 71.0 586.5Q55 603 55 628Q55 652 71.0 668.5Q87 685 112 685Q137 685 153.0 668.5Q169 652 169 628Q169 603 153.0 586.5Q137 570 112 570Z" transform="translate(-2.0875 18.1975) scale(0.001950 -0.001950)"/><path d="M268 -10Q203 -10 150.0 22.5Q97 55 66.5 111.0Q36 167 36 237Q36 307 66.5 363.0Q97 419 149.5 452.0Q202 485 268 485Q322 485 364.5 462.5Q407 440 433.0 400.5Q459 361 462 309V166Q459 115 433.5 75.0Q408 35 365.5 12.5Q323 -10 268 -10ZM283 75Q350 75 391.0 120.5Q432 166 432 237Q432 286 413.5 322.5Q395 359 361.0 379.5Q327 400 282 400Q237 400 202.5 379.0Q168 358 148.5 321.5Q129 285 129 238Q129 190 148.5 153.5Q168 117 203.0 96.0Q238 75 283 75ZM426 0V128L443 244L426 359V475H517V0Z" transform="translate(-1.6507 18.1975) scale(0.001950 -0.001950)"/><path d="M145 -10Q117 -10 98.5 9.5Q80 29 80 56Q80 84 98.5 102.5Q117 121 145 121Q173 121 191.5 102.5Q210 84 210 56Q210 29 191.5 9.5Q173 -10 145 -10Z" transform="translate(-0.5158 18.1975) scale(0.001950 -0.001950)"/><path d="M268 -10Q203 -10 150.0 22.5Q97 55 66.5 111.0Q36 167 36 237Q36 307 66.5 363.0Q97 419 149.5 452.0Q202 485 268 485Q322 485 364.5 462.5Q407 440 433.0 400.5Q459 361 462 309V166Q459 115 433.5 75.0Q408 35 365.5 12.5Q323 -10 268 -10ZM283 75Q350 75 391.0 120.5Q432 166 432 237Q432 286 413.5 322.5Q395 359 361.0 379.5Q327 400 282 400Q237 400 202.5 379.0Q168 358 148.5 321.5Q129 285 129 238Q129 190 148.5 153.5Q168 117 203.0 96.0Q238 75 283 75ZM426 0V128L443 244L426 359V475H517V0Z" transform="translate(0.0497 18.1975) scale(0.001950 -0.001950)"/><path d="M66 0V714H156V0Z" transform="translate(1.1846 18.1975) scale(0.001950 -0.001950)"/><path d="M66 212V297H395V212Z" transform="translate(1.6175 18.1975) scale(0.001950 -0.001950)"/><path d="M267 -10Q201 -10 149.0 22.5Q97 55 66.5 111.0Q36 167 36 237Q36 307 66.5 363.0Q97 419 149.0 452.0Q201 485 267 485Q320 485 363.0 462.5Q406 440 432.5 400.5Q459 361 462 309V166Q459 115 433.0 75.0Q407 35 364.0 12.5Q321 -10 267 -10ZM282 75Q327 75 360.5 96.0Q394 117 413.0 153.5Q432 190 432 237Q432 286 412.5 322.0Q393 358 359.5 379.0Q326 400 281 400Q236 400 202.0 379.0Q168 358 148.5 321.5Q129 285 129 238Q129 190 148.5 153.5Q168 117 202.5 96.0Q237 75 282 75ZM517 0H426V128L443 244L426 359V714H517Z" transform="translate(2.5165 18.1975) scale(0.001950 -0.001950)"/><path d="M268 -10Q203 -10 150.0 22.5Q97 55 66.5 111.0Q36 167 36 237Q36 307 66.5 363.0Q97 419 149.5 452.0Q202 485 268 485Q322 485 364.5 462.5Q407 440 433.0 400.5Q459 361 462 309V166Q459 115 433.5 75.0Q408 35 365.5 12.5Q323 -10 268 -10ZM283 75Q350 75 391.0 120.5Q432 166 432 237Q432 286 413.5 322.5Q395 359 361.0 379.5Q327 400 282 400Q237 400 202.5 379.0Q168 358 148.5 321.5Q129 285 129 238Q129 190 148.5 153.5Q168 117 203.0 96.0Q238 75 283 75ZM426 0V128L443 244L426 359V475H517V0Z" transform="translate(3.6514 18.1975) scale(0.001950 -0.001950)"/><path d="M286 -10Q215 -10 158.0 22.5Q101 55 68.0 111.0Q35 167 35 238Q35 308 67.5 364.0Q100 420 155.5 452.5Q211 485 280 485Q346 485 396.5 455.0Q447 425 475.5 372.0Q504 319 504 252Q504 242 503.0 230.5Q502 219 499 204H98V279H451L418 250Q418 298 401.0 331.5Q384 365 353.0 383.5Q322 402 278 402Q232 402 197.0 382.0Q162 362 143.0 326.0Q124 290 124 241Q124 191 144.0 153.5Q164 116 201.0 95.5Q238 75 286 75Q326 75 359.5 89.0Q393 103 417 131L475 72Q441 32 391.5 11.0Q342 -10 286 -10Z" transform="translate(4.7863 18.1975) scale(0.001950 -0.001950)"/><path d="M66 0V714H156V0Z" transform="translate(5.8315 18.1975) scale(0.001950 -0.001950)"/><path d="M66 0V714H156V0Z" transform="translate(6.2644 18.1975) scale(0.001950 -0.001950)"/><path d="M286 -10Q215 -10 158.0 22.5Q101 55 68.0 111.0Q35 167 35 238Q35 308 67.5 364.0Q100 420 155.5 452.5Q211 485 280 485Q346 485 396.5 455.0Q447 425 475.5 372.0Q504 319 504 252Q504 242 503.0 230.5Q502 219 499 204H98V279H451L418 250Q418 298 401.0 331.5Q384 365 353.0 383.5Q322 402 278 402Q232 402 197.0 382.0Q162 362 143.0 326.0Q124 290 124 241Q124 191 144.0 153.5Q164 116 201.0 95.5Q238 75 286 75Q326 75 359.5 89.0Q393 103 417 131L475 72Q441 32 391.5 11.0Q342 -10 286 -10Z" transform="translate(6.6973 18.1975) scale(0.001950 -0.001950)"/><path d="M402 0V277Q402 331 368.0 366.0Q334 401 280 401Q244 401 216.0 385.0Q188 369 172.0 341.0Q156 313 156 277L119 298Q119 352 143.0 394.0Q167 436 210.0 460.5Q253 485 307 485Q361 485 402.5 458.0Q444 431 468.0 387.5Q492 344 492 295V0ZM66 0V475H156V0Z" transform="translate(7.7425 18.1975) scale(0.001950 -0.001950)"/><path d="M145 -10Q117 -10 98.5 9.5Q80 29 80 56Q80 84 98.5 102.5Q117 121 145 121Q173 121 191.5 102.5Q210 84 210 56Q210 29 191.5 9.5Q173 -10 145 -10Z" transform="translate(8.8111 18.1975) scale(0.001950 -0.001950)"/><path d="M283 -10Q213 -10 156.5 23.0Q100 56 67.5 112.5Q35 169 35 238Q35 308 67.5 364.0Q100 420 156.5 452.5Q213 485 283 485Q338 485 385.0 464.5Q432 444 466 405L406 345Q384 371 352.5 384.5Q321 398 283 398Q238 398 203.0 377.5Q168 357 148.0 321.0Q128 285 128 238Q128 191 148.0 155.0Q168 119 203.0 98.0Q238 77 283 77Q321 77 352.5 90.5Q384 104 407 130L466 70Q433 32 385.5 11.0Q338 -10 283 -10Z" transform="translate(9.3766 18.1975) scale(0.001950 -0.001950)"/><path d="M402 0V277Q402 331 368.0 366.0Q334 401 280 401Q244 401 216.0 385.0Q188 369 172.0 341.0Q156 313 156 277L119 298Q119 352 143.0 394.0Q167 436 210.0 460.5Q253 485 307 485Q361 485 402.5 461.0Q444 437 468.0 394.0Q492 351 492 295V0ZM66 0V714H156V0Z" transform="translate(10.3301 18.1975) scale(0.001950 -0.001950)"/>
  </g>
  <g id="schnitt" class="schnitt">
    <circle cx="0" cy="0" r="24.960"/>
  </g>
</svg>
